# xmcd
#
# Track frame offsets:
#	150
#	14929
#	25519
#	38403
#	51916
#	60551
#	71233
#	81795
#	92167
#	103928
#	113305
#	121916
#
# Disc length: 1765 seconds
#
# Revision: 1
# Processed by: cddbd v1.5.2PL0 Copyright (c) Steve Scherf et al.
# Submitted via: audiograbber 1.83.01
#
DISCID=9706e30c
DTITLE=Waylon Jennings - The Best Of Waylon (ICE)
DYEAR=2006
DGENRE=Country
TTITLE0=There Ain't No Good Chain Gang
TTITLE1=Only Daddy That'll Walk Line
TTITLE2=The Eagle 
TTITLE3=Love Of The Common People
TTITLE4=Love's Gonna Live Here
TTITLE5=I've Got A Tiger By The Tail
TTITLE6=Dream Baby
TTITLE7=Money
TTITLE8=Crying
TTITLE9=Heartaches By The Number
TTITLE10=Abilene
TTITLE11=Burning Memories
EXTD=
EXTT0=
EXTT1=
EXTT2=
EXTT3=
EXTT4=
EXTT5=
EXTT6=
EXTT7=
EXTT8=
EXTT9=
EXTT10=
EXTT11=
PLAYORDER=
